<?xml version="1.0" encoding="utf-8"?>
<!-- Generator: Adobe Illustrator 19.0.0, SVG Export Plug-In . SVG Version: 6.00 Build 0)  -->
<svg version="1.1" id="Layer_1" xmlns="http://www.w3.org/2000/svg" xmlns:xlink="http://www.w3.org/1999/xlink" x="0px" y="0px"
	 viewBox="0 0 1417.3 1417.3" style="enable-background:new 0 0 1417.3 1417.3;" xml:space="preserve">
<style type="text/css">
	.st0{fill:#C6CED2;}
	.st1{fill:url(#XMLID_199_);}
	.st2{fill:#040505;}
	.st3{fill:#B5BDC6;}
	.st4{fill:#2D2B2E;}
	.st5{opacity:0.25;fill:#2D2B2E;}
	.st6{fill:#0C6AF4;}
	.st7{fill:#1D1D1B;}
	.st8{fill:#0D0D0D;}
	.st9{fill:url(#XMLID_200_);}
	.st10{fill:#3973B8;}
	.st11{fill:#FFFFFF;}
	.st12{fill:#262626;}
	.st13{fill:url(#XMLID_201_);}
	.st14{fill:url(#XMLID_202_);}
	.st15{display:none;fill:none;stroke:#1D1D1B;stroke-miterlimit:10;}
	.st16{fill:#CCCBCB;}
	.st17{fill:#2C1D18;}
	.st18{fill:#7E4E24;}
	.st19{fill:#EAE7CE;}
	.st20{fill:#403234;}
	.st21{fill:#0B0A0A;}
	.st22{fill:#6F1323;}
	.st23{fill:#99192F;}
	.st24{fill:#D93D60;}
	.st25{opacity:0.6;}
	.st26{fill:#E76693;}
	.st27{fill:#F1A3C4;}
	.st28{fill:#752834;}
	.st29{fill:#3569B0;}
	.st30{fill:#F9F9F9;}
	.st31{fill:#386DB3;}
	.st32{fill:#020303;}
	.st33{fill:#E0E5E8;}
	.st34{fill:#2A292A;}
	.st35{fill:#B6BCC7;}
	.st36{fill:url(#XMLID_203_);}
	.st37{fill:#2B2B2B;}
	.st38{fill:#202020;}
	.st39{fill:url(#XMLID_204_);}
</style>
<ellipse id="XMLID_74_" class="st0" cx="611" cy="871" rx="319.1" ry="30.5"/>
<radialGradient id="XMLID_199_" cx="649.9907" cy="818.2758" r="99.9567" gradientTransform="matrix(-0.2035 0.9791 -0.4826 -0.1003 1177.1908 263.9786)" gradientUnits="userSpaceOnUse">
	<stop  offset="0.6118" style="stop-color:#1D1D1B"/>
	<stop  offset="1" style="stop-color:#2A292A"/>
</radialGradient>
<path id="XMLID_98_" class="st1" d="M694.7,830.2c-7.9,38.9-29.3,66.1-62.9,60.6c-27-4.5-42.2-41.4-34.3-80.3
	c7.9-38.9,36.1-66,62.9-60.6C687.2,755.3,702.6,791.3,694.7,830.2z"/>
<ellipse id="XMLID_93_" transform="matrix(0.98 0.1991 -0.1991 0.98 177.722 -114.6628)" class="st2" cx="659.1" cy="826.5" rx="35.6" ry="63.2"/>
<g id="XMLID_92_">
	<path id="XMLID_75_" class="st3" d="M675.2,784c0,0-22.9-6.7-34.5,28.2c-11.3,34-6.7,52.9,4.5,61.4c7.2,5.4,17.2,1.9,22.4-1.6
		c6.8-4.7,15.6-20.2,19.4-44.6C690.8,803,686.9,789.1,675.2,784z"/>
	<path id="XMLID_76_" class="st4" d="M652.8,799.6c0,0-4,3.5-4.9,8.7c-1,5.2,4,3.4,5.5,0.1s3.7-4.8,3.5-7.1S654.1,798.4,652.8,799.6
		z"/>
	<path id="XMLID_78_" class="st4" d="M640.9,834.4c0,0-1.7,5,0,10c1.7,5,5.2,1,4.8-2.6c-0.4-3.6,0.9-6-0.4-7.9
		C644.1,832.1,641.4,832.7,640.9,834.4z"/>
	<path id="XMLID_79_" class="st4" d="M647.6,867.7c0,0,3.4,3,8,3.3s2.5-3.8-0.5-4.7c-3-0.9-4.4-2.7-6.4-2.3
		C646.8,864.5,646.4,866.8,647.6,867.7z"/>
	<path id="XMLID_80_" class="st5" d="M676.6,840.7c0,0,2.8-3.6,2.9-8.1c0.1-4.6-3.9-2.3-4.6,0.7c-0.7,3-2.4,4.6-1.9,6.5
		C673.4,841.7,675.7,842,676.6,840.7z"/>
	<path id="XMLID_77_" class="st4" d="M681.9,799.7c0,0-2.2-4-6.3-5.9c-4.2-1.8-3.7,2.7-1.2,4.5c2.5,1.9,3.2,4,5.2,4.3
		C681.5,803,682.7,801,681.9,799.7z"/>
</g>
<g id="XMLID_1_">
	<path id="XMLID_149_" class="st6" d="M164.5,1075c-13.4,0-24-3.5-31.7-10.6c-6.5-5.9-9.7-12.6-9.7-20.3c0-3.9,1-7.2,3-9.8
		c2-2.6,4.8-3.9,8.3-3.9c4.8,0,8.2,2.9,10.5,8.6c3,7.7,9.8,11.5,20.4,11.5c9.1,0,17.9-2.3,26.4-7c8.8-4.8,13.2-10.1,13.2-15.8
		c0-7.9-2.7-13-8.2-15.5c-3.9-1.8-11.8-2.9-23.5-3.2c-9.1-0.2-17.3-2.3-24.6-6.1c-9.8-5.2-14.6-12.6-14.4-22.3
		c0.2-12.2,5.6-23.3,16.5-33.4c10.8-10.1,22.8-15.2,35.8-15.2c5.2,0,11.6,1.4,19.2,4.2c9.5,3.5,14.2,7.5,14.2,12.1
		c0,3.2-1,6.1-2.9,8.6c-2.1,2.8-4.8,4.2-8.2,4.2c-2.5,0-6.2-0.6-11.1-1.9c-4.9-1.2-8.7-1.9-11.2-1.9c-6.8,0.1-13.3,2-19.4,5.8
		c-6.3,3.9-9.5,8.1-9.5,12.6c0,2.4,1,4.3,2.9,5.8c1.9,1.5,4.8,2.6,8.7,3.2c6.8,0.4,13.5,0.9,20.2,1.3c11.7,1.1,21,5,27.8,11.7
		c7.5,7.5,11.2,17.8,11.2,31.1c0,16.1-7.8,28.3-23.3,36.6C193.3,1071.8,179.7,1075,164.5,1075z"/>
	<path id="XMLID_151_" class="st6" d="M264.7,1025.4c0,3.6,0.1,9.3,0.3,17.1c0.2,7.9,0.3,13.6,0.3,17.1c0,3.6-1,6.6-3.1,8.9
		c-2.1,2.3-4.7,3.5-7.8,3.5s-5.8-1.2-7.8-3.5c-2.1-2.3-3.1-5.3-3.1-8.9c0-3.6-0.1-9.3-0.3-17.1c-0.2-7.9-0.3-13.6-0.3-17.1
		c0-5.6,0.3-12.5,0.8-20.9c0.5-8.4,0.8-15.3,0.8-20.9c0-3.6,1-6.6,3.1-8.9c2.1-2.3,4.7-3.5,7.8-3.5c3.2,0,5.8,1.2,7.8,3.5
		c2.1,2.3,3.1,5.3,3.1,8.9c0,5.6-0.3,12.5-0.8,20.9C264.9,1012.9,264.7,1019.8,264.7,1025.4z M257.9,956.8c-3.4,0-6.3-1.3-8.8-4
		c-2.5-2.7-3.7-6-3.7-9.8c0-3.9,1.2-7.1,3.7-9.8c2.5-2.7,5.4-4,8.8-4c3.4,0,6.3,1.3,8.8,4c2.5,2.7,3.7,6,3.7,9.8
		c0,3.9-1.2,7.1-3.7,9.8C264.2,955.5,261.3,956.8,257.9,956.8z"/>
	<path id="XMLID_172_" class="st6" d="M305.8,986.5c8-10.9,15.5-16.4,22.7-16.4c8.1,0,14.1,3.6,17.9,10.9c3.2-3.4,6.8-5.9,10.7-7.6
		c3.9-1.7,8.1-2.5,12.7-2.5c10.3,0,17.4,6.1,21.1,18.2c0.7,2.5,1.9,10.9,3.4,25.4c1.5,10.1,3.4,26.9,5.7,50.5
		c0.2,3.6-0.8,6.5-3.1,8.8c-2.3,2.3-4.9,3.5-8,3.5c-6.1,0-9.6-3.6-10.7-10.7c-1-6.4-1.9-15.5-2.9-27.2c-1.1-12.8-1.9-22-2.6-27.3
		c-1.4-11.2-3.2-16.7-5.5-16.7c-1.2,0-4,1.4-8.3,4.3c-4.3,2.9-7.5,5.3-9.5,7.4c0,7.1,0.7,17.3,2.1,30.7c1.5,13.7,2.2,23.9,2.2,30.7
		c0,3.6-1,6.5-3.1,8.9c-2.1,2.4-4.7,3.6-7.8,3.6c-3.2,0-5.8-1.2-7.8-3.6c-2.1-2.4-3.1-5.3-3.1-8.9c0-7.1-0.6-17.6-1.9-31.4
		c-1.3-13.8-1.9-24.3-1.9-31.4c0-4-0.3-7.2-0.9-9.5c-6.1,4.2-12.3,11.1-18.5,20.9c-0.3,0.4-0.7,1.1-1.3,2
		c-0.2,12.6-0.3,22.5-0.3,29.7c0,1.7-0.1,4.1-0.2,7.1c-0.1,3-0.2,5.2-0.2,6.6c0,3.4-1.2,6-3.5,8c-2.1,1.8-4.7,2.7-7.8,2.7
		c-4.5,0-7.5-2.3-9.1-6.9c-1.1-3.1-1.7-8.1-1.7-14.9v-34.8c0-3.1-0.1-7.7-0.3-13.7c-0.2-6-0.3-10.6-0.3-13.7
		c0-5.6,0.8-10.6,2.5-15.1c2.1-5.6,5-8.4,8.7-8.4c3,0,5.6,1.4,7.9,4.1c2.3,2.7,3.5,5.7,3.5,8.9C306.6,977.1,306.3,979.8,305.8,986.5
		z"/>
	<path id="XMLID_174_" class="st6" d="M447.9,1074.8c-4.5,0-9.3-0.6-14.3-1.9l-0.1,38.2c0,3.6-1,6.6-3.1,9c-2.1,2.4-4.7,3.6-7.8,3.6
		c-3.2,0-5.8-1.2-7.8-3.6c-2.1-2.4-3.1-5.4-3.1-9c0-2.9,0.1-14.6,0.2-34.9c0.1-15.1,0.1-27.4,0-37c-0.2-13.5-0.5-25.1-1.1-34.8
		c-0.8-13.4-1.2-19.6-1.2-18.4c0-5.2,1-9.6,2.9-13.3c2.3-4.2,5.3-6.3,9.2-6.3c3,0,5.4,1.2,7.4,3.6c2,2.4,3,5.2,3,8.5l-0.1,0.9
		c3.5-2.4,7.1-4.1,10.7-5.3c3.6-1.2,7.1-1.7,10.7-1.7c12.1,0,21,6.1,26.6,18.2c4.2,9.2,6.3,21.1,6.3,35.6c0,13.7-3.3,25-9.9,34
		C469.3,1070,459.8,1074.8,447.9,1074.8z M453.4,997.4c-3.3,0-6.7,0.9-10.1,2.8c-3.4,1.8-6.9,4.6-10.4,8.3c0.6,12.9,1,25.7,1,38.6
		c4.7,1.8,9.4,2.7,14.1,2.7c5.4,0,9.6-2.3,12.5-6.8c2.6-4.1,4-9.7,4-16.7c0-8.4-0.3-14.3-1-17.5
		C461.9,1001.2,458.6,997.4,453.4,997.4z"/>
	<path id="XMLID_177_" class="st6" d="M522.5,1055.5c0,11.9-3.6,17.8-10.9,17.8c-3.2,0-5.8-1.2-7.8-3.6c-2.1-2.4-3.1-5.4-3.1-9.2
		V931.2c0-3.6,1.1-6.6,3.3-8.9c2.1-2.1,4.7-3.2,7.8-3.2c3.1,0,5.7,1.1,7.7,3.3c2,2.2,3,5.1,3,8.7V1055.5z"/>
	<path id="XMLID_179_" class="st6" d="M582.4,1073.6c-12.6,0-22.9-3.6-31-10.7c-8.9-7.9-13.3-18.9-13.3-33.2
		c0-15.8,3.5-29.1,10.5-40c7.8-12.1,18.3-18.2,31.6-18.2c9.2,0,16.8,1.7,22.9,5.2c8,4.6,12,11.8,12,21.5c0,6.9-3.2,12.9-9.7,18.2
		c-3,2.4-8.9,6-17.8,10.7l-26.7,13.9c2.5,3.2,5.6,5.7,9.2,7.3c3.6,1.6,7.7,2.4,12.4,2.4c7.1,0,13.1-1.7,18-5.1
		c4.4-3.1,7.9-4.6,10.5-4.6c5.5,0,8.2,3.2,8.2,9.5c0,7.1-4.4,12.9-13.2,17.4C598.6,1071.7,590.7,1073.6,582.4,1073.6z M580.3,994.1
		c-4.9,0-9.1,1.9-12.6,5.8c-3.5,3.9-6.3,9.7-8.4,17.4c6-3.1,11.9-6.1,17.8-9.1c7.1-3.8,12.8-7.3,17-10.6
		C590.6,995.3,586,994.1,580.3,994.1z"/>
	<path id="XMLID_182_" class="st6" d="M699.6,1001.8c-0.5,9.5-4.1,14.3-11,14.3c-6.7,0-10-4.1-10-12.2l-0.4-9.5
		c-11.9,2.2-20.4,9.5-25.5,21.6l0.1,47.1c0,3.6-1,6.5-3.1,8.8c-2.1,2.3-4.7,3.5-7.8,3.5c-3.3,0-5.8-1.2-7.6-3.7
		c-1.7-2.2-2.5-5.1-2.5-8.6v-61.3c0-1.9,0.1-4.8,0.2-8.7c0.1-3.8,0.2-6.7,0.2-8.7c0-3.5,0.9-6.4,2.7-8.7c1.8-2.3,4.3-3.5,7.6-3.5
		c5.9,0,9.3,3.6,10.5,10.7c9.3-8.2,19.7-12.4,31.1-12.4c10.6,0,15.8,8.3,15.8,24.9C699.7,998.7,699.6,1000.8,699.6,1001.8z"/>
	<path id="XMLID_184_" class="st6" d="M780.5,1015.2c0,4.2,0,10.5,0.1,18.9c0.1,8.4,0.1,14.7,0.1,18.9c0,1.3,0.1,3.3,0.3,5.8
		c0.2,2.6,0.3,4.5,0.3,5.8c0,3.5-1.1,6.4-3.2,8.7c-2.1,2.3-4.8,3.4-7.9,3.4c-4.4,0-7.6-2.3-9.6-7c-6.8,2.9-13.8,4.4-21,4.4
		c-7.5,0-13.8-1.9-18.9-5.6c-5.8-4.3-9.2-10.5-10.3-18.7c-2.1-15.5-3.1-29.4-3.1-41.6c0-8.1,0.8-17.3,2.4-27.6
		c1.1-7,4.6-10.5,10.7-10.5c3.1,0,5.7,1.1,7.8,3.4s3.2,5.1,3.2,8.6c0,2.7-0.4,7-1.1,12.8c-0.8,5.8-1.1,10.3-1.1,13.3
		c0,8.7,0.3,16.4,0.8,22.9c0.5,6.5,1.3,11.9,2.3,16.2c1.3,0.7,2.6,1.2,3.8,1.6c1.2,0.4,2.4,0.6,3.6,0.6c5.9,0,12.3-1,19.3-3
		c0-4.8,0-10.3-0.1-16.4c-0.1-7.3-0.2-12.5-0.2-15.7c0-12.8,0.5-23.8,1.5-33.1c0.8-7.4,4.4-11.1,10.8-11.1c3.1,0,5.8,1.2,8,3.5
		c2.2,2.3,3.2,5.2,3.1,8.7C781,1006,780.5,1017,780.5,1015.2z"/>
	<path id="XMLID_186_" class="st6" d="M857.9,1075.9c-6.5,0-10.1-3.8-10.9-11.3c-0.7-6.4-1.5-12.9-2.2-19.4
		c-0.8-6.9-1.2-13.3-1.2-19.4c0-1.6,0.1-4.4,0.3-8.3c0.2-3.9,0.3-6.7,0.3-8.3c0-0.4,0.1-1.5,0.2-3.3c0.1-1.8,0.2-3.2,0.2-4.4
		c0-5.2-1.1-7.8-3.2-7.8c-4.5,0-9,3.4-13.3,10.3c-4.4,6.9-7.8,15.6-10.2,26.1c-0.1,2.1-0.3,4.9-0.7,8.4c-0.3,2.9-0.4,5.7-0.4,8.4
		c0,1.8-0.2,4.5-0.5,8.1c-0.3,3.6-0.5,6.3-0.5,8.1c0,3.6-1,6.7-3.1,9.1c-2.1,2.4-4.7,3.6-7.9,3.6c-3.2,0-5.8-1.2-7.8-3.6
		c-2.1-2.4-3.1-5.4-3.1-9c0-1.8-0.2-4.5-0.5-8.1c-0.3-3.6-0.5-6.3-0.5-8.1c0-6.1,0.4-14.6,1.1-25.4c0.7-10.9,1.1-19.3,1.1-25.4
		c0-1.9-0.1-4.7-0.3-8.5c-0.2-3.8-0.3-6.6-0.3-8.4c0-3.6,1.1-6.5,3.2-8.8c2.1-2.3,4.8-3.5,7.9-3.5c6.9,0,10.6,4.9,11.1,14.7l0.1,1
		c7.7-9.2,15.8-13.8,24.4-13.8c10,0,16.9,4.9,20.7,14.8c2.5,6.6,3.8,16.5,3.8,29.7v6.6c-0.1,2.9-0.1,4.9-0.1,6.1
		c0,4.9,0.6,11.1,1.7,18.8c1.1,7.7,1.7,13.9,1.7,18.7c0,3.5-1.1,6.4-3.2,8.7C863.6,1074.8,861,1075.9,857.9,1075.9z"/>
	<path id="XMLID_188_" class="st6" d="M936.2,1000.8c-5.2,0-8.4-2.6-9.4-7.8c-2.1-0.4-4.3-0.7-6.5-0.7c-12.7,0-19.1,2.1-19.1,6.2
		c0,2.4,3.8,5.7,11.5,9.8c10.5,5.7,17.5,10.1,21.2,13.3c7.7,6.5,11.5,13.9,11.5,22.2c0,10.7-4.2,18.9-12.7,24.4
		c-6.8,4.4-15.2,6.6-25.1,6.6c-7,0-13.4-1.3-19.2-3.8c-7.9-3.5-11.9-8.6-11.9-15.4c0-6.2,3.1-9.4,9.4-9.4c2.4,0,5.9,0.9,10.5,2.7
		c4.6,1.8,8.1,2.7,10.6,2.7c10.7,0,16.1-2.6,16.2-7.7c0-3.2-3.7-6.7-11.2-10.6c-10.9-5.7-17.8-9.8-20.9-12.3
		c-7.4-6.2-11.2-13.7-11.2-22.5c0-12.5,5.6-21,16.9-25.4c6.6-2.6,16.6-3.8,30.1-3.8c5.3,0,9.2,0.8,11.7,2.4
		c3.5,2.2,5.2,6.2,5.2,12.1C943.8,995.2,941.3,1000.8,936.2,1000.8z"/>
	<path id="XMLID_190_" class="st6" d="M986.2,1079c-3.5,0-6.6-1.3-9.2-3.9c-2.6-2.6-3.9-5.5-3.9-8.7c0-3.3,1.3-6.3,3.9-8.9
		c2.6-2.7,5.6-4,9.2-4c3.7,0,6.8,1.2,9.3,3.7c2.4,2.5,3.6,5.6,3.6,9.2c0,3.3-1.3,6.2-3.8,8.8C992.8,1077.7,989.8,1079,986.2,1079z"
		/>
	<path id="XMLID_192_" class="st6" d="M1066.1,1075.2c-11.6,0-21.4-3.9-29.2-11.7c-8.3-8.2-12.4-19.1-12.4-32.6
		c0-12.4,3.7-25.2,11.2-38.5c8.4-15.1,18.3-22.6,29.5-22.6c5.5,0,11.9,1.7,19.2,5.2c8.9,4.3,13.4,9.3,13.4,14.9
		c0,3.1-0.9,5.8-2.7,8.1c-1.9,2.6-4.4,3.8-7.4,3.8c-2.3,0-5-1.5-8.2-4.4c-3.2-2.9-8-4.4-14.4-4.4c-4.1,0-8.5,4.7-13.2,14.1
		c-4.5,9.1-6.8,17-6.8,23.6c0,6.5,2,11.7,6,15.4c3.8,3.6,8.8,5.3,15,5.3c3.5,0,7.9-1.6,13-4.8c5.1-3.2,8.4-4.8,9.7-4.8
		c2.9,0,5.3,1.2,7.3,3.6c2,2.4,3,5.2,3,8.3c0,4.9-4.5,9.7-13.5,14.6C1077.8,1073,1071.2,1075.2,1066.1,1075.2z"/>
	<path id="XMLID_194_" class="st6" d="M1145.7,1074.8c-9.8,0-18.2-4-25.2-11.9c-7.7-8.7-11.8-20.2-12.1-34.7
		c-0.4-13.8,2.8-26.1,9.6-36.9c8-12.7,19.2-19.1,33.5-19.1c10.6,0,19,5,25.2,15c5.6,9,8.4,20.1,8.4,33.4c0,14.5-3.3,26.8-9.8,37.1
		C1167.9,1069.1,1158,1074.8,1145.7,1074.8z M1150.4,996.9c-6.5-0.1-11.6,3.4-15.4,10.5c-3.2,5.9-4.8,12.9-4.8,20.8
		c0,7.5,1.8,13.2,5.4,17.2c2.9,3.2,6.2,4.8,10,4.8c4.6,0,8.6-1.8,12-5.5c3.9-4.3,5.9-10.1,6.2-17.5
		C1164.5,1007.1,1160,997,1150.4,996.9z"/>
	<path id="XMLID_197_" class="st6" d="M1218.9,986.5c8-10.9,15.5-16.4,22.7-16.4c8.1,0,14.1,3.6,17.9,10.9c3.2-3.4,6.8-5.9,10.7-7.6
		c3.9-1.7,8.1-2.5,12.7-2.5c10.3,0,17.4,6.1,21.1,18.2c0.7,2.5,1.9,10.9,3.4,25.4c1.5,10.1,3.4,26.9,5.7,50.5
		c0.2,3.6-0.8,6.5-3.1,8.8c-2.3,2.3-4.9,3.5-8,3.5c-6.1,0-9.6-3.6-10.7-10.7c-1-6.4-1.9-15.5-2.9-27.2c-1.1-12.8-1.9-22-2.6-27.3
		c-1.4-11.2-3.2-16.7-5.5-16.7c-1.2,0-4,1.4-8.3,4.3c-4.3,2.9-7.5,5.3-9.5,7.4c0,7.1,0.7,17.3,2.1,30.7c1.5,13.7,2.2,23.9,2.2,30.7
		c0,3.6-1,6.5-3.1,8.9c-2.1,2.4-4.7,3.6-7.8,3.6s-5.8-1.2-7.8-3.6c-2.1-2.4-3.1-5.3-3.1-8.9c0-7.1-0.6-17.6-1.9-31.4
		c-1.3-13.8-1.9-24.3-1.9-31.4c0-4-0.3-7.2-0.9-9.5c-6.1,4.2-12.3,11.1-18.5,20.9c-0.3,0.4-0.7,1.1-1.3,2
		c-0.2,12.6-0.3,22.5-0.3,29.7c0,1.7-0.1,4.1-0.2,7.1c-0.1,3-0.2,5.2-0.2,6.6c0,3.4-1.2,6-3.5,8c-2.1,1.8-4.7,2.7-7.8,2.7
		c-4.5,0-7.5-2.3-9.1-6.9c-1.1-3.1-1.7-8.1-1.7-14.9v-34.8c0-3.1-0.1-7.7-0.3-13.7c-0.2-6-0.3-10.6-0.3-13.7
		c0-5.6,0.8-10.6,2.5-15.1c2.1-5.6,5-8.4,8.7-8.4c3,0,5.6,1.4,7.9,4.1c2.3,2.7,3.5,5.7,3.5,8.9
		C1219.6,977.1,1219.3,979.8,1218.9,986.5z"/>
</g>
<path id="XMLID_86_" class="st7" d="M269.3,610.5c0,0,6.4,36.8,31.3,47.4c0,0,6.4,2.8,12.9,0c6.4-2.8,8.3-14.9,5.1-23.1
	s-28.6-22-28.6-22L269.3,610.5z"/>
<polygon id="XMLID_89_" points="874.6,736.9 874.6,721.5 749.3,713.5 741.3,729.1 749.1,746 847.3,747.6 "/>
<path id="XMLID_90_" class="st8" d="M356.5,840c-0.6,2.7,1,7.1,1.7,9.8c0.9,3.3,2.1,6.5,3.6,9.6c2.9,6.1,7,11.7,12.3,16
	c3.7,3.1,8.1,5.5,12.8,6.6c4.7,1.1,9.6,0.7,14.4,0.6c7-0.1,14.1,0.3,21.1-0.5c7-0.8,14-2.9,19.3-7.5c4.7-4.1,7.8-9.9,9.5-16
	c1.7-6,2.2-12.3,2.5-18.6c-28.7,0-57.4,0-86.1,0C363.9,839.9,360.1,839.6,356.5,840z"/>
<linearGradient id="XMLID_200_" gradientUnits="userSpaceOnUse" x1="294.7491" y1="567.7482" x2="997.4445" y2="567.7482">
	<stop  offset="0" style="stop-color:#0C6AF4"/>
	<stop  offset="0.3763" style="stop-color:#0E6BF4"/>
	<stop  offset="0.5118" style="stop-color:#156FF4"/>
	<stop  offset="0.6084" style="stop-color:#2077F5"/>
	<stop  offset="0.6866" style="stop-color:#3181F6"/>
	<stop  offset="0.7536" style="stop-color:#478EF7"/>
	<stop  offset="0.8128" style="stop-color:#639FF8"/>
	<stop  offset="0.8665" style="stop-color:#83B3F9"/>
	<stop  offset="0.9158" style="stop-color:#A9CAFB"/>
	<stop  offset="0.9596" style="stop-color:#D2E3FD"/>
	<stop  offset="1" style="stop-color:#FFFFFF"/>
</linearGradient>
<path id="XMLID_3_" class="st9" d="M406.7,420.1c0,0-29,12.8-57.3,54.2c-28.3,41.5-35.2,164.8-35.9,171.3c0,0-14.5,17.2-16.8,24.5
	c-2.3,7.4-1.8,43.8-1.8,43.8s6.7,14.5,7.6,21.2c0.9,6.7-1.4,28.6,7.6,45.1c0,0-8.8,19.3,2.5,30.4c11.3,11.1,21.2,11.5,21.2,11.5
	s-2.1,21.4,20.3,22.8l253.5-9.4c0,0,20.3,1.8,26.5-52.4c6.2-54.2,35.6-45.6,35.6-45.6s27.5,2.4,23.4,63.9c0,0,36.4-4.4,43.3-15.9
	c0,0,8.8-58.3,14.3-61.9s137,0,190.4,19.8c0,0,32.9-82.9,42.6-153.4s14.5-177.5,13.8-194.1s-22.1-42.1-59.4-56.6
	c-37.3-14.5-141.6-40.8-214.2-47.7s-272.9,20.7-289.5,36.6C417.8,344.1,405.1,390.4,406.7,420.1z"/>
<g id="XMLID_5_">
	<path id="XMLID_148_" class="st7" d="M973.4,392.4c-0.1,0-0.2,0-0.4-0.1l-43.3-12c-0.7-0.2-1.2-1-1-1.7c0.2-0.7,1-1.2,1.7-1
		l43.3,12c0.7,0.2,1.2,1,1,1.7C974.5,392,974,392.4,973.4,392.4z"/>
</g>
<g id="XMLID_7_">
	<path id="XMLID_147_" class="st7" d="M973.4,413.3c-0.1,0-0.2,0-0.4-0.1l-43.3-12c-0.7-0.2-1.2-1-1-1.7c0.2-0.7,1-1.2,1.7-1
		l43.3,12c0.7,0.2,1.2,1,1,1.7C974.5,412.9,974,413.3,973.4,413.3z"/>
</g>
<g id="XMLID_8_">
	<path id="XMLID_146_" class="st7" d="M973.4,435.6c-0.1,0-0.2,0-0.4-0.1l-43.3-12c-0.7-0.2-1.2-1-1-1.7c0.2-0.7,1-1.2,1.7-1
		l43.3,12c0.7,0.2,1.2,1,1,1.7C974.5,435.2,974,435.6,973.4,435.6z"/>
</g>
<g id="XMLID_6_">
	<path id="XMLID_145_" class="st10" d="M737.2,437.7l-0.9-1.6c-14.2-24.8-30.5-38.4-54.6-45.5c-25.4-7.4-60.7-7.7-105.9-5.7
		c-95,4.1-168.2,35.3-169,35.6l-0.5-1.3c0.7-0.3,74.2-31.6,169.4-35.7c95.8-4.1,133,2.6,160.9,50.4c2.1-10,12.3-59.6,14.5-75
		l1.4,0.2c-2.4,17.1-14.7,76.3-14.9,76.9L737.2,437.7z"/>
</g>
<path id="XMLID_91_" class="st11" d="M648.6,552.1c0,0,9.3-46.1,12-61.3c2.8-15.2,9.9-45.8,30.2-44.4c20.3,1.4,22.1,0.3,26.2,7.2
	c4.1,6.9,9.4,26.1,10.2,66.7c0.8,41,0.1,75.3,0.1,75.3s-2.8,9.3-8.3,12.4c-5.5,3.1-16.8,12-30.1,8.2c-13.4-3.8-29.9-10-34.1-19
	C650.6,588.2,648.6,552.1,648.6,552.1z"/>
<g id="XMLID_85_">
	<g id="XMLID_14_">
		<path id="XMLID_15_" class="st12" d="M652.1,533.7c0,0-14.5,59.4,1.7,81.2c0,0,12.6,2.2,18.1,1.6c0,0,13.3,14.7,26.8,13.3
			c0,0-11.7-62.5,3.1-80.5c0,0-16.9-2.4-21.8,11.7s-3.5,29.4-3.5,29.4s-7.4,4.3-11.5-1.7C660.9,582.7,662.3,557.4,652.1,533.7z"/>
		<linearGradient id="XMLID_201_" gradientUnits="userSpaceOnUse" x1="648.174" y1="580.8138" x2="701.803" y2="580.8138">
			<stop  offset="0" style="stop-color:#3C3C3B;stop-opacity:0"/>
			<stop  offset="7.189572e-003" style="stop-color:#3D3D3C;stop-opacity:7.189572e-003"/>
			<stop  offset="0.1957" style="stop-color:#5F5F5E;stop-opacity:0.1957"/>
			<stop  offset="0.3881" style="stop-color:#7A7979;stop-opacity:0.3881"/>
			<stop  offset="0.584" style="stop-color:#8D8C8C;stop-opacity:0.584"/>
			<stop  offset="0.7852" style="stop-color:#989797;stop-opacity:0.7852"/>
			<stop  offset="1" style="stop-color:#9C9B9B"/>
		</linearGradient>
		<path id="XMLID_16_" class="st13" d="M652.1,533.7c0,0-11.4,55.8,4.8,77.6c0,0,8.1,2.2,15.6,2.4c0,0,12,14.8,25.9,14.1
			c0,0-11.4-60.6,3.4-78.6c0,0-16.9-2.4-21.8,11.7s-3.5,29.4-3.5,29.4s-7.4,4.3-11.5-1.7C660.9,582.7,662.3,557.4,652.1,533.7z"/>
	</g>
	<g id="XMLID_10_">
		<path id="XMLID_13_" class="st12" d="M698.5,629.9c0,0,17.7-3.5,18.9-23.9s0.2-30.9-1.9-40.8c-2.1-9.8-8.7-14.9-13.4-15.6
			c-4.7-0.7-9.2,8.2-9.8,33.9C691.7,609.2,696.7,628.4,698.5,629.9z"/>
		<radialGradient id="XMLID_202_" cx="701.7924" cy="554.5397" r="39.1508" gradientUnits="userSpaceOnUse">
			<stop  offset="0" style="stop-color:#9C9B9B"/>
			<stop  offset="0.2148" style="stop-color:#989797;stop-opacity:0.7852"/>
			<stop  offset="0.416" style="stop-color:#8D8C8C;stop-opacity:0.584"/>
			<stop  offset="0.6119" style="stop-color:#7A7979;stop-opacity:0.3881"/>
			<stop  offset="0.8043" style="stop-color:#5F5F5E;stop-opacity:0.1957"/>
			<stop  offset="0.9928" style="stop-color:#3D3D3C;stop-opacity:7.189572e-003"/>
			<stop  offset="1" style="stop-color:#3C3C3B;stop-opacity:0"/>
		</radialGradient>
		<path id="XMLID_12_" class="st14" d="M698.5,629.9c0,0,17.7-3.5,18.9-23.9s0.2-30.9-1.9-40.8c-2.1-9.8-8.7-14.9-13.4-15.6
			c-4.7-0.7-9.2,8.2-9.8,33.9C691.7,609.2,696.7,628.4,698.5,629.9z"/>
	</g>
</g>
<path id="XMLID_11_" class="st15" d="M676.7,620c0,0,3.9-18.1,4.8-21.1c0.8-3,2-7.6,8.2-8.3c6.2-0.8,9.6,1.8,11,4.5
	c1.5,2.8,2.6,8.9,2.7,13.6c0.1,4.7,0.2,31.8,0,35.4c-0.2,3.6-3.6,10.2-6.8,11.5c-3.2,1.3-8.1,1.3-13.5-4.6s-6.3-10.2-7.1-16.6
	S676.7,620,676.7,620z"/>
<path id="XMLID_19_" class="st7" d="M724.3,472.4c-4.4-21.3-6.7-19.9-10.7-23.8c-7.4-3.7-20.4-3.6-20.4-3.6s-21.2-1.6-20.7,18.5
	s10.7,82.4,10.7,82.4h4.2c0,0-8.9-68.2-8.9-78.1c0-9.9-2.5-18.4,14.7-19.8c2.2-0.2,3.9,0.6,5.1,0.5c6.3,0.4,15.9,5.5,18.5,21.1
	c3.6,21.8,7.5,126.1,7.5,126.1h3C727.3,595.6,728.7,494,724.3,472.4z"/>
<path id="XMLID_84_" class="st16" d="M438.5,439.4c0,0,95.3-22.6,144.2-15.2s55.3,13.6,58.5,25.9c3.2,12.3-5.5,52.8-5.5,52.8
	l-12.4,82.5L602.6,607c0,0-122.6-4.1-136.6-4.1s-36.4-2.4-36.4-2.4l-54.2,14.5c0,0-52,25.4-81.7,12.9s-49.5-58.9-28.3-91.9
	c21.2-32.9,57.9-52.3,88.9-54.4c0,0,24.9-21.4,41.5-27.3S438.5,439.4,438.5,439.4z"/>
<path id="XMLID_9_" d="M358.3,476.1c0,0,23.7-20.7,95.8-36.2c68.3-14.6,118.8-12.8,143.2-10.5s42.4,24.3,41.5,39.5
	c-0.9,15.2-14.3,80.6-17,92.6c-2.8,12-9.7,30.9-31.3,34.1s-122.6-5.5-154.1,0s-61.8,16.6-61.8,16.6l55.6-9.3l0.7,12.4
	c0,0,84.3-7.6,126.1-6.6c41.8,1,75.6,6.6,75.6,6.6s5.5,1.7,4.8-9.8c-0.7-11.6-7.2-71.3,1.4-104.8s19-57,39-69.1
	c20-12.1,52.8,4.3,52.8,4.3s-0.7-8.8-12.8-13.2s-38.1-0.6-44.3,2.4c-6.2,3-30,4.6-62.2-3.9c-31.1-8.2-130.8-0.2-158.1,8.4
	C426,438.1,391.2,446,358.3,476.1z"/>
<g id="XMLID_82_">
	<path id="XMLID_17_" class="st17" d="M577.7,488.2c0,0,6.9-28-30.4-36.6c-41.2-9.5-79.8,33.2-79.8,33.2s38.7-22.6,58-22.4
		C550.6,462.5,565.3,474.3,577.7,488.2z"/>
	
		<image style="overflow:visible;" width="595" height="378" id="XMLID_20_" xlink:href="9CEAA6E5.png"  transform="matrix(0.24 0 0 0.24 462.4577 416.9484)">
	</image>
</g>
<g id="XMLID_83_">
	<path id="XMLID_21_" class="st17" d="M293.6,472.1c0,0,22.7-19.6,46.4-17.8c19.4,1.4,31.8,14.9,45.6,27.3c0,0-4.5-33.5-40.4-38.3
		C312.5,438.8,293.6,472.1,293.6,472.1z"/>
	
		<image style="overflow:visible;" width="591" height="377" id="XMLID_22_" xlink:href="9CEAA6E7.png"  transform="matrix(0.24 0 0 0.24 270.0734 411.0735)">
	</image>
</g>
<g id="XMLID_81_">
	<g id="XMLID_18_">
		<path id="XMLID_140_" class="st16" d="M589.1,571.1c0,42.9-26.5,77.7-69.4,77.7s-70.6-34.8-70.6-77.7c0-42.9,27.7-77.7,70.6-77.7
			S589.1,528.1,589.1,571.1z"/>
		<path id="XMLID_141_" class="st18" d="M519.7,649.1c-41.1,0-70.9-32.8-70.9-78.1s29.8-78.1,70.9-78.1c20.6,0,38.3,7.9,51.1,22.9
			c12.1,14.1,18.7,33.7,18.7,55.2s-6.6,41-18.7,55.2C558,641.2,540.3,649.1,519.7,649.1z M519.7,493.7c-40.7,0-70.2,32.5-70.2,77.4
			c0,44.8,29.5,77.4,70.2,77.4c40.7,0,69.1-31.8,69.1-77.4C588.7,525.5,560.3,493.7,519.7,493.7z"/>
	</g>
	<path id="XMLID_23_" class="st19" d="M578.3,572.7c0,38.5-23.8,69.7-62.3,69.7s-63.3-31.2-63.3-69.7S477.5,503,516,503
		S578.3,534.2,578.3,572.7z"/>
	<path id="XMLID_24_" class="st20" d="M545.8,562.2c9.7,24.7,3.2,50.4-20,59.5c-23.2,9.1-46-5.1-55.7-29.8
		c-9.7-24.7-2.6-50.6,20.6-59.7S536.1,537.5,545.8,562.2z"/>
	<path id="XMLID_26_" class="st21" d="M529,566.4c6.3,16.1,2.1,32.8-13,38.7c-15.1,5.9-30-3.3-36.3-19.4s-1.7-33,13.4-38.9
		S522.7,550.3,529,566.4z"/>
	<path id="XMLID_27_" class="st11" d="M531.7,543.8c7.1,7.8,9.6,17.2,4.3,22.1s-14.6,1.7-21.7-6.2c-7.1-7.8-9.5-17.3-4.1-22.2
		C515.5,532.6,524.6,536,531.7,543.8z"/>
	<path id="XMLID_25_" class="st11" d="M531.8,524.7c0,0,16.2,16.6,25.9,34.1c10.6,18.8,13.5,0.1,6.7-13.7
		c-4.6-9.2-15.9-21.5-21.6-26C535.7,513.5,525,515.1,531.8,524.7z"/>
</g>
<g id="XMLID_32_">
	<path id="XMLID_131_" class="st22" d="M289.3,666c0,0,49.3,40.5,120.2,40.5s99-3.6,142.8-28.1c0,0-22.8,31.4-30.9,60.8
		c-11.4,41.8-59.4,64.9-103.2,63.1c-39.7-1.7-69.4-18.4-93-50.3c-8.2-11.1-6.9-27.2-10.8-40.2C309.4,695,301,679.2,289.3,666z"/>
	<path id="XMLID_133_" class="st21" d="M423.2,803.9c-1.7,0-3.4,0-5.1-0.1c-39.7-1.7-69.6-17.8-94.1-50.8c-5.5-7.4-6.9-17-8.2-26.2
		c-0.7-4.9-1.5-10-2.8-14.5c-5.1-17.1-13.7-32.8-24.8-45.3c-0.5-0.5-0.5-1.4,0-1.9c0.5-0.5,1.3-0.6,1.9-0.1
		c0.5,0.4,49.7,40.2,119.3,40.2c71.4,0,98.8-3.7,142.1-27.9c0.6-0.3,1.3-0.2,1.7,0.3c0.4,0.5,0.5,1.2,0.1,1.7
		c-0.2,0.3-22.8,31.5-30.6,60.3c-5.5,20-19.3,36.9-40.1,48.8C465,798.4,444.1,803.9,423.2,803.9z M296.8,673.1
		c8.3,11.2,14.8,24.3,18.9,38.3c1.4,4.7,2.2,9.9,2.9,14.9c1.3,8.9,2.6,18,7.7,24.9c23.9,32.3,53.1,48.1,91.9,49.7
		c40.7,1.7,90.1-19.5,101.8-62.1c6.1-22.5,21.1-46.4,27.7-56.4c-41,22-69.2,25.4-138.3,25.4C355.7,708,313.9,684.5,296.8,673.1z"/>
</g>
<path id="XMLID_35_" class="st11" d="M330,691.6c0,0-11.4,29.7,64.2,37.7c75.6,7.9,89.8-7.3,99.1-14.2c9.3-6.9,10.1-16.1,10.1-16.1
	S406.1,721.7,330,691.6z"/>
<path id="XMLID_37_" class="st23" d="M406.7,770.7c0,0-15.9-10.7-34.2-5.5c-18.3,5.2-35.9-7.3-34.2-19.7
	c1.7-12.4,23.8-17.3,47.3-6.2c23.5,11.1,25.6,17.3,33.5,15.9c7.9-1.4,35.7-19.1,66.6-11.7c25.1,6,9.8,24.4,3.9,29.5
	c-5.9,5.1-17.6,12-43.2,2C420.9,764.8,406.7,770.7,406.7,770.7z"/>
<path id="XMLID_39_" class="st24" d="M352.6,777.7c0,0,32.7-18,50.7-3.9c0,0,40.4-9.2,62.9,19.7c0,0-26.2,11.2-60.1,7.9
	C376.7,798.5,356.8,784.6,352.6,777.7z"/>
<path id="XMLID_111_" class="st7" d="M339.7,630.8c0,0,46.5-10.9,74.1-11.6c0,0,3.4-4.2-0.3-5.6c-3.6-1.4-51.8,4.8-61.9,8.6
	c-10.2,3.7-8.5,1.5-8.5,1.5L339.7,630.8z"/>
<g id="XMLID_87_">
	<g id="XMLID_71_">
		<path id="XMLID_99_" class="st16" d="M259.4,525.8c-20.8,43.8-5.3,88.8,26.2,103.7c39.4,12.3,76.3-5.6,97.5-45.6
			c21.4-40.3,12.4-90.6-27.3-104.2C322.9,468.4,277.2,488.4,259.4,525.8z"/>
		<g id="XMLID_34_">
			<path id="XMLID_2_" class="st16" d="M267.1,529.2c-20.7,43.6-5.4,88.4,25.8,103.2c39.8,14,75.7-5.7,96.8-45.6
				c21.4-40.2,12.5-90.2-26.8-103.6C330.2,471.9,284.8,491.8,267.1,529.2z"/>
			<path id="XMLID_122_" class="st18" d="M318.1,637.1c-8.3,0-16.8-1.5-25.3-4.5c-14.1-6.7-25.1-19.4-31-35.9
				c-7.5-21.1-5.8-45.2,5-67.8c17.2-36.3,62.2-57.9,96.3-46.3c15.6,5.3,27.1,16.5,33.4,32.4c8.5,21.4,6.1,48.2-6.4,71.7
				c-10.7,20.1-25.1,35-41.6,43.1C338.9,634.8,328.6,637.1,318.1,637.1z M267.1,529.2l0.3,0.1c-10.7,22.4-12.4,46.3-4.9,67.2
				c5.8,16.3,16.7,28.9,30.6,35.5c38.1,13.4,74.2-3.6,96.4-45.5c12.4-23.3,14.7-49.9,6.4-71.1c-6.2-15.7-17.6-26.8-33-32
				c-33.7-11.5-78.3,9.9-95.4,45.9L267.1,529.2z"/>
		</g>
		<path id="XMLID_33_" class="st19" d="M265.5,542.8c-10.8,34.7,0.6,70.4,36.9,81.7s63.3-11.6,79.3-44.3
			c17.7-36.1,10.2-78.4-26.2-89.7S276.3,508.1,265.5,542.8z"/>
		
			<ellipse id="XMLID_28_" transform="matrix(-0.9275 -0.3739 0.3739 -0.9275 431.0266 1217.5453)" class="st20" cx="333.6" cy="567" rx="40.4" ry="49.1"/>
		<path id="XMLID_31_" class="st21" d="M306.6,554.6c-8,15.3-5.6,32.4,8.8,39.9c14.4,7.5,30.1-0.1,38.1-15.5s5.2-32.6-9.2-40.1
			C330,531.4,314.6,539.2,306.6,554.6z"/>
		<path id="XMLID_30_" class="st11" d="M368,538.9c-5.6-9-13.9-14-20.1-10.1c-6.2,3.8-5.6,13.6,0,22.6c5.6,9,14.1,13.8,20.3,10
			C374.3,557.5,373.6,547.9,368,538.9z"/>
		<path id="XMLID_29_" class="st11" d="M294.7,534.3c-4.9,9.5-10.5,13.3-13.6,40.6c-1.2,10.7-10.5,1.8-8.8-15.3
			c1.7-16.8,7.9-22.7,11.2-26.4C289.5,526.5,300.1,523.9,294.7,534.3z"/>
	</g>
	<g id="XMLID_48_">
		<path id="XMLID_119_" class="st19" d="M320.8,628.8c-6.1,0-12.3-1-18.8-3c-17.6-5.5-30.4-16.8-37-32.8
			c-6.1-14.8-6.4-32.7-0.8-50.5c5.3-17.1,18.8-33.6,36-44.1c18.2-11.1,38.5-14.4,55.7-9c14.6,4.5,25.4,14.2,31.3,28
			c7.8,18.2,6.2,42-4.4,63.6c-8.7,17.7-19.9,31.2-32.5,39.2C341.1,625.8,331.2,628.8,320.8,628.8z M338.9,489.4
			c-12.3,0-25.2,3.8-37.3,11.1c-16.7,10.2-29.7,26.1-34.9,42.7c-5.4,17.2-5.1,34.5,0.7,48.7c6.3,15.2,18.5,26.1,35.3,31.3
			c6.5,2,12.5,2.9,18.2,2.9c31.5,0,50.4-27.9,59.5-46.5c10.2-20.9,11.9-43.8,4.3-61.3c-5.6-13-15.9-22.2-29.7-26.5
			C350,490.2,344.5,489.4,338.9,489.4z"/>
	</g>
</g>
<g id="XMLID_46_" class="st25">
	<path id="XMLID_41_" class="st26" d="M358.6,778.1c0,0,20-4,24.4-1.9c4.4,2.1,2,4.5,2.8,9.1c0.7,4,3.5,7.3,12.7,3.8
		s16.8-5.8,24.9-6c8.1-0.2,26.7,6.2,27.9,4.8c1.2-1.4-3.2-10.4-17.3-12.3c-14-1.9-28.9,0-28.9,0s-7.4-4.6-10.2-5.3
		c-2.9-0.7-12.7-1.9-23.6,1C364.2,773.1,358.6,778.1,358.6,778.1z"/>
	<g id="XMLID_44_">
		<path id="XMLID_36_" class="st27" d="M408,782.4c8.4-3.2,17.1-2.8,25.8-0.9c1.6,0.4,4.7-2.1,2.3-2.6c-10.2-2.3-20-2.5-29.8,1.2
			C403.7,781.2,406,783.2,408,782.4L408,782.4z"/>
	</g>
</g>
<g id="XMLID_45_">
	<g id="XMLID_47_">
		<path id="XMLID_118_" class="st28" d="M466.3,793.3c-21.7-27.8-61.1-19.3-61.5-19.2l-0.7,0.2l-0.5-0.5
			c-17.7-15.4-50.6,5.4-50.9,5.6l-1.5-2.3c1.4-0.9,34.4-21.7,53.7-5.8c5.5-1,42.5-6.8,63.6,20.3L466.3,793.3z"/>
	</g>
	<path id="XMLID_43_" class="st28" d="M391.3,782.5c0,0,0.7-0.9,1.8-2.2c1.1-1.3,2.8-2.8,4.6-4.3c0.4-0.4,0.9-0.7,1.4-1
		c0.4-0.3,0.9-0.6,1.4-0.9c0.4-0.3,0.9-0.6,1.3-0.8c0.4-0.3,0.8-0.5,1.2-0.7c0.8-0.4,1.4-0.7,1.9-1c0.5-0.2,0.7-0.3,0.7-0.3l0.9,2.6
		c0,0-0.3,0.1-0.7,0.2c-0.5,0.1-1.1,0.3-1.9,0.6c-0.4,0.1-0.8,0.3-1.2,0.5c-0.4,0.2-0.9,0.4-1.4,0.6c-0.5,0.2-1,0.4-1.4,0.7
		c-0.5,0.3-1,0.5-1.4,0.8c-1.9,1.1-3.8,2.4-5.1,3.4C392.1,781.7,391.3,782.5,391.3,782.5z"/>
</g>
<g id="XMLID_50_">
	<path id="XMLID_115_" class="st29" d="M419.4,834c-21.8,0-46.5-4.3-69.6-17.2c-0.7-0.4-0.9-1.2-0.5-1.9c0.4-0.7,1.2-0.9,1.9-0.5
		c27.2,15.2,55.4,17.5,74.3,16.7c21-0.8,39.6-5.9,48-10.2c11.2-5.7,35.1-24.7,47.2-34.6c-11.3,4.6-33.4,12.7-65.9,21.3
		c-49.7,13.1-93.5-9.2-93.9-9.4c-0.7-0.4-0.9-1.2-0.6-1.9s1.2-0.9,1.9-0.6c0.4,0.2,43.3,22,91.9,9.2c49-12.9,74.1-24.8,74.4-24.9
		c0.6-0.3,1.4-0.1,1.8,0.5c0.4,0.6,0.3,1.4-0.3,1.8c-1.6,1.3-39.7,33.1-55.2,41C464.9,828.4,444.1,834,419.4,834z"/>
</g>
<path id="XMLID_49_" d="M547,664.7c0,0,0,0.2,0.1,0.4c0.1,0.3,0.3,0.7,0.5,1.2c0.2,0.5,0.5,1.1,0.9,1.8c0.2,0.3,0.4,0.7,0.6,1.1
	c0.2,0.4,0.4,0.8,0.6,1.2c0.2,0.4,0.5,0.8,0.7,1.3c0.2,0.4,0.5,0.9,0.9,1.3c0.3,0.4,0.6,0.9,1,1.3c0.4,0.4,0.8,0.8,1.2,1.3
	c0.4,0.5,0.8,0.8,1.3,1.2c0.5,0.4,0.9,0.8,1.4,1.2c0.5,0.4,1,0.7,1.5,1.1l0.8,0.5l0.8,0.5c1.1,0.6,2.2,1.3,3.3,1.7
	c1.1,0.5,2.2,1,3.4,1.4c1.1,0.3,2.2,0.8,3.3,1c1.1,0.2,2.1,0.5,3,0.7c0.9,0.2,1.8,0.4,2.5,0.6c0.8,0.2,1.4,0.4,2,0.5
	c1.1,0.3,1.7,0.5,1.7,0.5s-0.6,0-1.8,0c-0.6,0-1.3,0-2.1,0c-0.4,0-0.8,0-1.3,0c-0.5,0-0.9-0.2-1.4-0.3c-1-0.2-2-0.5-3.1-0.7
	c-1.1-0.3-2.2-0.7-3.4-1.1c-1.2-0.3-2.3-0.9-3.5-1.4c-1.2-0.5-2.3-1.2-3.5-1.8l-0.9-0.5l-0.8-0.6c-0.5-0.4-1.1-0.8-1.6-1.1
	c-0.5-0.4-1-0.8-1.5-1.3c-0.5-0.4-1-0.8-1.4-1.3c-0.4-0.5-0.8-0.9-1.2-1.4c-0.4-0.4-0.7-0.9-1.1-1.4c-0.3-0.5-0.7-0.9-0.9-1.4
	c-0.3-0.5-0.5-0.9-0.8-1.3c-0.2-0.5-0.5-0.9-0.6-1.3c-0.2-0.4-0.2-0.9-0.3-1.2c-0.2-0.8-0.3-1.5-0.4-2
	C547,665.3,547,664.7,547,664.7z"/>
<g id="XMLID_52_">
	<path id="XMLID_65_" class="st10" d="M571,689.1c-1.2,0-2-0.3-2.7-0.9c-1.4-1.4-1.2-3.9,0.9-7.6l0.2-0.3l0.3-0.2
		c0.3-0.2,27.4-19.3,68.8-21.3c41-2.1,104.1,0,104.8,0l0.4,0l0.4,0.3c0.2,0.2,2.4,1.9,2.5,4.5c0,1.7-0.8,3.2-2.4,4.6l-0.4,0.3
		l-0.5,0c-0.9,0-91.3-0.7-103.3,0c-12.5,0.7-42.9,8.1-56.6,15.8C577.5,687.5,573.6,689.1,571,689.1z M571.5,682.2
		c-1.5,2.8-1.3,3.9-1.2,4c0,0,1.6,1.4,11.5-4.2c14.1-7.9,45-15.4,57.8-16.1c11.8-0.7,94.7-0.1,102.9,0c0.7-0.7,1.1-1.4,1.1-2.1
		c0-0.9-0.7-1.7-1.1-2.2c-6.1-0.2-65.1-1.9-104,0C600.1,663.5,574.3,680.3,571.5,682.2z"/>
</g>
<rect id="XMLID_51_" x="684.8" y="670.5" class="st30" width="28.3" height="8"/>
<rect id="XMLID_53_" x="720.8" y="670.5" class="st30" width="5.1" height="7"/>
<g id="XMLID_54_">
	<path id="XMLID_62_" class="st31" d="M613.7,697.6c-1.8,0-2.8-0.8-3.3-1.5c-1.2-1.7-0.6-4-0.5-4.2l0.1-0.3l0.2-0.2
		c0.3-0.3,7.2-7.3,18.7-7.6c10.9-0.2,90,0,90.8,0l0.3,0c2.2,0.5,3.6,1.6,4,3.1c0.8,2.7-1.9,5.6-2.2,5.9l-0.4,0.4h-0.6
		c-0.8,0-82.7,0-91.6,0.5c-5.1,0.3-8.1,1.5-10.5,2.5C617,697,615.5,697.6,613.7,697.6z M612.5,693c-0.1,0.5-0.1,1.1,0.2,1.5
		c0.2,0.3,0.7,0.3,1.1,0.3c1.2,0,2.4-0.5,4-1.2c2.5-1,5.8-2.5,11.4-2.7c8.6-0.4,82.9-0.5,91.1-0.5c0.7-0.8,1.4-2,1.1-2.8
		c-0.2-0.6-1.2-1-1.9-1.2c-4.1,0-79.9-0.2-90.5,0C619.8,686.7,613.8,691.8,612.5,693z"/>
</g>
<g id="XMLID_58_">
	<path id="XMLID_57_" class="st31" d="M705.7,792.7v-13.5l-3.4-3.9l0-0.4c-1.6-17.5-3.5-29.6-5.2-32.5c-2.6-4.4-9.3-12.5-13.5-14.7
		c-4.5-2.2-12-4.9-26.3-2c-13.5,2.7-20.4,18.6-20.8,19.6c-0.5,1.5-1.8,3.9-4.2,3.8c-1.5-0.1-2.3-0.8-2.7-1.4c-1-1.4-0.9-3.7,0.2-7.1
		c1.7-5.1,10-20.3,21.9-23.8c11.4-3.4,24.6-1.8,25.2-1.8c0.3,0,8.7,1.1,21.4,10.6l-1.7,2.2c-12-9-20-10.1-20.1-10.1
		c-0.1,0-13.2-1.5-24.1,1.7c-10.7,3.2-18.6,17.5-20.1,22c-1.1,3.5-0.6,4.5-0.5,4.6c0,0.1,0.1,0.2,0.6,0.2c0,0,0,0,0,0
		c0.6,0,1.3-1.2,1.5-1.9l0-0.1c0.3-0.7,7.5-18.2,22.8-21.3c15.1-3.1,23.3-0.2,28.1,2.2c5.1,2.5,12.2,11.6,14.6,15.7
		c2.4,4.2,4.3,20.3,5.5,33.2l3.5,4v11c8.6-2,20.6-5.2,23.8-6.7l4.7-24.8h-28.4l0.3-7.7l11.8-0.3l-0.1-2.5l15.4-0.7l0.2-2.6l6.8-0.6
		l0.2,2.8l-4.5,0.4l-0.2,2.7l-15,0.7l0.1,2.6l-12,0.3l-0.1,2.2h28.9l-5.6,29.3l-0.5,0.3c-3.6,2.3-24.5,7.2-26.9,7.8L705.7,792.7z"/>
</g>
<g id="XMLID_60_">
	<polygon id="XMLID_38_" class="st31" points="724.6,727.2 712.4,727.2 712.4,724.4 723.5,724.4 725.9,722.1 735.1,722.1 
		738.3,721.1 743.4,721.1 743.4,719.1 749.9,718.2 750.2,721 746.2,721.5 746.2,723.8 738.8,723.8 735.5,724.9 727,724.9 	"/>
</g>
<g id="XMLID_125_">
	<polygon id="XMLID_102_" class="st32" points="1064,740.2 1188.7,724.9 1219.4,724.9 1060.9,747.8 	"/>
	<polygon id="XMLID_105_" class="st32" points="1070.9,787.2 1330.8,751.9 1361.5,751.9 1067.8,794.8 	"/>
	<polygon id="XMLID_106_" class="st32" points="891,877.3 1280,827.5 1310.7,827.5 887.8,884.9 	"/>
	<g id="XMLID_103_">
		<path id="XMLID_101_" class="st33" d="M1179,759.7c0-12.5-10.1-22.6-22.6-22.6c-9.4,0-17.5,5.8-20.9,14c-0.6,0-1.1-0.1-1.7-0.1
			c-18.2,0-33,14.8-33,33c0,18.2,14.8,33,33,33c18.2,0,33-14.8,33-33c0-1.4-0.1-2.9-0.3-4.2C1173.9,776.1,1179,768.5,1179,759.7z"/>
		<path id="XMLID_104_" class="st0" d="M1161.6,764.4c0-6.9-5.6-12.5-12.5-12.5c-5.2,0-9.7,3.2-11.6,7.8c-0.3,0-0.6,0-1,0
			c-10.1,0-18.3,8.2-18.3,18.3c0,10.1,8.2,18.3,18.3,18.3c10.1,0,18.3-8.2,18.3-18.3c0-0.8-0.1-1.6-0.2-2.4
			C1158.7,773.5,1161.6,769.3,1161.6,764.4z"/>
	</g>
	<circle id="XMLID_100_" class="st33" cx="1114.7" cy="724.9" r="12.4"/>
	<g id="XMLID_107_">
		<path id="XMLID_110_" class="st33" d="M1082.7,797.2c2.6-5.2,4-11,4-17.2c0-14.9-8.4-27.9-20.7-34.4c4.2-3.5,6.9-8.7,6.9-14.6
			c0-10.4-8.4-18.9-18.9-18.9c-3,0-5.9,0.7-8.4,2c0-0.1,0-0.2,0-0.3c8.5-2.9,14.5-10.9,14.5-20.3c0-11.9-9.6-21.5-21.5-21.5
			c-7.7,0-14.4,4-18.2,10.1c-3.7-1.2-7.7-1.9-11.8-1.9c-20.5,0-37.1,16.6-37.1,37.1c0,4,0.6,7.8,1.8,11.4c-3-0.8-6-1.2-9.2-1.2
			c-18.3,0-33.5,13.2-36.5,30.6c-6.4-5.1-14.4-8.2-23.2-8.2c-20.5,0-37.1,16.6-37.1,37.1s16.6,37.1,37.1,37.1
			c18.3,0,33.5-13.2,36.5-30.6c6.4,5.1,14.4,8.2,23.2,8.2c20.5,0,37.1-16.6,37.1-37.1c0-4-0.6-7.8-1.8-11.4c3,0.8,6,1.2,9.2,1.2
			c3.9,0,7.7-0.6,11.3-1.8c-7,7.1-11.3,16.8-11.3,27.5c0,9.7,3.6,18.6,9.5,25.5c-7.9,8.8-12.7,20.4-12.7,33.2
			c0,27.5,22.3,49.7,49.7,49.7c27.5,0,49.7-22.3,49.7-49.7C1105,821.4,1096.1,806.1,1082.7,797.2z M1037.8,740.3
			c0.3,0.6,0.7,1.2,1.1,1.7c-1.2,0.3-2.4,0.6-3.5,1C1036.2,742.2,1037,741.3,1037.8,740.3z"/>
		<path id="XMLID_112_" class="st0" d="M1057.7,795.7c-0.2-3.8-0.8-7.4-1.7-11c8.9-5.2,14.8-14.7,14.8-25.7c0-8.5-3.6-16.2-9.4-21.7
			c1.2-3,1.9-6.4,1.9-9.9c0-14.6-11.9-26.5-26.5-26.5c-0.7,0-1.4,0.1-2,0.1c1.8-2.6,2.9-5.8,2.9-9.3c0-8.9-7.3-16.2-16.2-16.2
			c-8.4,0-15.4,6.5-16.1,14.7c0,0,0,0-0.1,0c-8.9,0-16.2,7.3-16.2,16.2c0,8.9,7.3,16.2,16.2,16.2c2,0,3.9-0.4,5.7-1
			c-0.4,1.9-0.7,3.8-0.7,5.8c0,1.2,0.1,2.4,0.3,3.5c-7.8,2.8-14.2,8.8-17.4,16.4c-2.8,0.7-5.5,1.5-8.1,2.6
			c-4.2-1.1-8.6-1.7-13.2-1.7c-20.2,0-37.7,11.4-46.5,28.1c-8.8-16.7-26.3-28.1-46.5-28.1c-29,0-52.5,23.5-52.5,52.5
			c0,9.2,2.4,17.9,6.6,25.4c-0.7,3.4-1.1,6.9-1.1,10.5c0,29,23.5,52.5,52.5,52.5c17.7,0,33.3-8.8,42.8-22.2
			c10.6,18.9,30.8,31.7,54.1,31.7c11.9,0,23-3.3,32.4-9.1c8.4,5.8,18.6,9.1,29.6,9.1c29,0,52.5-23.5,52.5-52.5
			C1095.9,822.2,1079.8,802,1057.7,795.7z"/>
	</g>
</g>
<path id="XMLID_72_" class="st34" d="M743,813.5c0,0,2.9,28.4,14.2,45.2c11.3,16.9,26.9,18.9,36.8,15.5c0,0,15.4,15.4,36.6,11.4
	c0,0,14.3,0,24.9-28.4c10.5-28.5,6.8-61.9,2.1-72.3c-4.7-10.4-27.5-8.3-42.7,7.6C799.8,808.4,743,813.5,743,813.5z"/>
<ellipse id="XMLID_67_" transform="matrix(0.9959 9.031653e-002 -9.031653e-002 0.9959 77.5154 -72.3487)" class="st35" cx="838.2" cy="820.3" rx="19.2" ry="38.5"/>
<path id="XMLID_73_" d="M866.6,822.2c0,0,8.2,2.7,8.9-31.3l48,2.9v-32.5l-46.6-4.1l-2.2-26.7l-31.8-3.3c0,0-22.8,2-26.1,49.3
	C813.3,823.9,866.6,822.2,866.6,822.2z"/>
<radialGradient id="XMLID_203_" cx="838.8143" cy="824.7335" r="27.7583" gradientTransform="matrix(0.9963 8.647331e-002 -0.183 2.1083 154.0678 -986.6086)" gradientUnits="userSpaceOnUse">
	<stop  offset="0" style="stop-color:#1D1D1B"/>
	<stop  offset="0.5532" style="stop-color:#1F1F1E"/>
	<stop  offset="0.9085" style="stop-color:#272626"/>
	<stop  offset="1" style="stop-color:#2A292A"/>
</radialGradient>
<path id="XMLID_69_" class="st36" d="M866.2,827.2c-3,33.6-17.8,59.7-32.9,58.4c-15.1-1.4-24.9-29.7-21.9-63.3
	c3-33.6,17.8-59.7,32.9-58.4C859.5,765.3,869.3,793.6,866.2,827.2z"/>
<ellipse id="XMLID_113_" transform="matrix(0.9959 9.031650e-002 -9.031650e-002 0.9959 77.9152 -72.3882)" class="st3" cx="838.8" cy="824.7" rx="12.6" ry="28"/>
<ellipse id="XMLID_68_" transform="matrix(0.9959 9.031650e-002 -9.031650e-002 0.9959 77.9152 -72.3882)" class="st37" cx="838.8" cy="824.7" rx="2.3" ry="5.1"/>
<g id="XMLID_70_">
	<path id="XMLID_61_" class="st38" d="M747.3,728.8c0,0,22.9-1.6,42.1-1.1c19.2,0.5,41.3,0,49.3,6.1c0,0-13.4,13.5-15.1,29.7
		c-1.7,16.2-4.1,57-5.5,61.5c-1.4,4.5-7.3,7.3-7.3,7.3s-73.2-4.1-75.3-5.2c-2.1-1-5.9-2.4-4.3-18.3c1.6-15.9,15-79.1,16.6-79.9"/>
	
		<radialGradient id="XMLID_204_" cx="816.4961" cy="754.2863" r="3.8362" gradientTransform="matrix(0.9924 0.1234 -0.5012 4.0298 384.2836 -2386.1169)" gradientUnits="userSpaceOnUse">
		<stop  offset="0" style="stop-color:#FFFFFF"/>
		<stop  offset="1" style="stop-color:#FFFFFF;stop-opacity:0"/>
	</radialGradient>
	<path id="XMLID_59_" class="st39" d="M813,753.8c-1.2,9.2-0.7,16.9,1.2,17.1c1.9,0.3,4.5-7,5.7-16.2s0.7-16.9-1.2-17.1
		C816.8,737.4,814.2,744.6,813,753.8z"/>
</g>
<path id="XMLID_4_" d="M558.7,287.9c-45.2,7.5-92,16-119.9,26.6c-19.5,7.4-32.6,25.8-33.4,46.6l-2.2,57l3.1-0.2l11.2-49.4
	c4.8-16.5,17.4-30.1,34-34.4c17.4-4.4,46.9-11,88.7-18.1c51.6-8.7,117.9-10.3,162.5-10.1c27.2,0.1,49.2,22.2,49,49.5l-1.1,161.9
	l4.1,60.3l1.8,26.3l2.8,56.6l4.6-117l2.9-180.7c0.4-27.6,23-46.2,50.3-41.5c74.9,12.9,125.6,31.5,152.7,46.8
	c13.4,7.6,21.4,21.9,21.4,37.2c-0.2,39.8-2.3,122.2-15.3,193C958,695.8,933.1,740,933.1,740l7.8,3.5
	c67.3-138.7,63.9-331.2,62.5-363.7c-0.1-3-3.8-5.7-5.9-7.8c-21.5-21.2-68.4-57-201.9-81C795.7,290.9,675.2,268.6,558.7,287.9z"/>
<path id="XMLID_88_" class="st7" d="M261.6,662.4c1.2,0.6,2.4,1.1,3.6,1.5c1.2,0.4,2.4,0.8,3.7,1.1c0.6,0.2,1.2,0.3,1.8,0.5
	c0.6,0.2,1.2,0.3,1.8,0.5c1.2,0.3,2.5,0.5,3.7,0.6c0.6,0.1,1.3,0.1,1.9,0.1c0.6,0,1.3,0,1.9,0c0.6,0,1.3,0,1.9-0.1
	c0.6,0,1.3-0.1,1.9-0.2c0.6-0.1,1.2-0.2,1.9-0.3c0.6-0.1,1.2-0.2,1.8-0.4c0.6-0.2,1.2-0.3,1.8-0.5l1.8-0.6c1.2-0.5,2.3-1,3.4-1.6
	c1.1-0.6,2.2-1.3,3.3-2c1-0.8,2.1-1.5,3-2.3c0.5-0.4,1-0.8,1.5-1.2l1.4-1.3c0.9-0.8,1.8-1.8,2.6-2.8c0.8-1,1.6-2,2.4-2.9l2.3-3.1
	c0.4-0.5,0.7-1.1,1.1-1.6l1.2-1.5l-0.1,0.3c0.2-2.1,0.3-4.3,0.5-6.4c0.2,2.1,0.4,4.3,0.5,6.4l0,0.1l-0.1,0.2l-0.9,1.7
	c-0.3,0.6-0.7,1.1-1.1,1.6l-2.3,3.2c-0.8,1-1.6,2-2.5,3c-0.9,0.9-1.7,2-2.7,2.8l-1.4,1.4c-0.5,0.4-1,0.8-1.5,1.3
	c-1,0.9-2.1,1.6-3.1,2.4c-1.1,0.7-2.2,1.4-3.4,2c-1.1,0.6-2.4,1.2-3.6,1.7l-1.9,0.7c-0.6,0.2-1.3,0.4-1.9,0.6
	c-0.6,0.2-1.3,0.3-1.9,0.4c-0.6,0.2-1.3,0.2-1.9,0.3c-0.7,0.1-1.3,0.2-2,0.2c-0.7,0.1-1.3,0.1-2,0.1c-0.7,0-1.3,0-2,0
	c-0.7,0-1.3-0.1-2-0.1c-1.3-0.1-2.6-0.3-3.9-0.6c-1.3-0.3-2.6-0.5-3.8-1.1c-1.2-0.5-2.4-1.1-3.5-1.7
	C263.7,663.9,262.6,663.2,261.6,662.4z"/>
<path id="XMLID_116_" class="st11" d="M758.2,683.2h-1.6c0.3-1.9,1.8-17.2,1.8-21l1.1,5.2C759.6,671.4,758.3,682.7,758.2,683.2z"/>
<polygon id="XMLID_117_" class="st11" points="755.2,718 753.2,718.5 756.5,685.2 758.2,685 "/>
</svg>
